PathFileType	4	(X/Y/Z)	outputs\dynamic_markers.trc
DataRate	CameraRate	NumFrames	NumMarkers	Units	OrigDataRate	OrigDataStartFrame	OrigNumFrames
360.000000	360.000000	4	48	m	360.000000	334	669
Frame#	Time	C7			CLAV			LANK			LASI			LBAK			LBHD			LELB			LFHD			LFIN			LFRM			LHEE			LIC			LKNE			LMANK			LMELB			LMKNE			LPSI			LSHO			LTHI			LTIB			LTOE			LUPA			LWRA			LWRB			RANK			RASI			RBAK			RBHD			RELB			RFHD			RFIN			RFRM			RHEE			RIC			RKNE			RMANK			RMELB			RMKNE			RPSI			RSHO			RTHI			RTIB			RTOE			RUPA			RWRA			RWRB			STRN			T10			
		X1	Y1	Z1	X2	Y2	Z2	X3	Y3	Z3	X4	Y4	Z4	X5	Y5	Z5	X6	Y6	Z6	X7	Y7	Z7	X8	Y8	Z8	X9	Y9	Z9	X10	Y10	Z10	X11	Y11	Z11	X12	Y12	Z12	X13	Y13	Z13	X14	Y14	Z14	X15	Y15	Z15	X16	Y16	Z16	X17	Y17	Z17	X18	Y18	Z18	X19	Y19	Z19	X20	Y20	Z20	X21	Y21	Z21	X22	Y22	Z22	X23	Y23	Z23	X24	Y24	Z24	X25	Y25	Z25	X26	Y26	Z26	X27	Y27	Z27	X28	Y28	Z28	X29	Y29	Z29	X30	Y30	Z30	X31	Y31	Z31	X32	Y32	Z32	X33	Y33	Z33	X34	Y34	Z34	X35	Y35	Z35	X36	Y36	Z36	X37	Y37	Z37	X38	Y38	Z38	X39	Y39	Z39	X40	Y40	Z40	X41	Y41	Z41	X42	Y42	Z42	X43	Y43	Z43	X44	Y44	Z44	X45	Y45	Z45	X46	Y46	Z46	X47	Y47	Z47	X48	Y48	Z48	

335	0.9277777777777778	0.1080125346779823	1.56346869468689	0.5847364664077759	0.1065856590867043	1.456180691719055	0.4516656994819641	-0.01966377161443233	0.05971624702215195	0.5502834916114807	0.1415029168128967	1.060187816619873	0.5908612012863159	0.08892154693603516	1.401405096054077	0.705748438835144	-0.002379721496254206	1.702640771865845	0.4449097514152527	-0.1497357487678528	1.204504251480103	0.3635115623474121	0.1060457155108452	1.735274791717529	0.3714243173599243	0.02951248735189438	1.414091944694519	0.1976678967475891	-0.09524595737457275	1.297876477241516	0.2853145897388458	0.03379480913281441	0.06256189942359924	0.6283019185066223	0.1396808922290802	1.085737109184265	0.6792306900024414	0.01957554742693901	0.5649023056030273	0.4593887329101562	0.0951070711016655	0.07594773173332214	0.5526750087738037	-0.06239748746156693	1.158717155456543	0.3935849070549011	0.1246047765016556	0.530601978302002	0.4035515785217285	0.3124862611293793	1.073925733566284	0.7107455730438232	-0.07090272009372711	1.506356358528137	0.5426313877105713	0.0618792362511158	0.713520884513855	0.5535444617271423	-0.01326125953346491	0.4386239647865295	0.4807465076446533	0.03419379144906998	0.09601803869009018	0.3730159401893616	-0.127436026930809	1.352539777755737	0.4585825800895691	0.02154914848506451	1.3556809425354	0.2353460788726807	-0.03851091116666794	1.33556604385376	0.1817649155855179	0.2826827168464661	0.7712525725364685	0.2855821847915649	0.3717774748802185	1.145803213119507	0.4787575602531433	0.2931320071220398	1.441850066184998	0.6375630497932434	0.07982808351516724	1.695600748062134	0.5767443180084229	0.4764487743377686	1.294493436813354	0.2924079298973083	0.1990158259868622	1.739425897598267	0.4993661940097809	0.1798248291015625	1.423845767974854	0.1362714022397995	0.338398814201355	1.34512734413147	0.2206849753856659	0.2902688682079315	0.8188140392303467	0.3743722438812256	0.4381760358810425	1.191474080085754	0.5436418056488037	0.1832418590784073	1.20061719417572	0.1620842069387436	0.1954050660133362	0.7689671516418457	0.3580446541309357	0.4386836886405945	1.22372031211853	0.3322330713272095	0.07495645433664322	1.204571485519409	0.2592096924781799	0.392324686050415	1.099202632904053	0.6703731417655945	0.2688678205013275	1.558110475540161	0.443176805973053	0.3616807162761688	1.157923579216003	0.3121255338191986	0.2152356803417206	1.062958478927612	0.1693152785301208	0.1327535510063171	0.6906202435493469	0.1961615383625031	0.3867633938789368	1.425000905990601	0.3486784398555756	0.2267453223466873	1.346900463104248	0.2254420667886734	0.2399619817733765	1.308489203453064	0.15996153652668	0.1396326869726181	1.272012710571289	0.4531670808792114	0.2292291522026062	1.356767892837524	0.6982970237731934	
336	0.9305555555555556	0.1091389060020447	1.562734484672546	0.5839395523071289	0.1075142696499825	1.455260515213013	0.4511651694774628	-0.01953051798045635	0.05979130417108536	0.5503112077713013	0.1429650634527206	1.059099555015564	0.5908527970314026	0.09034843742847443	1.40082836151123	0.7053175568580627	-0.001650464255362749	1.701647162437439	0.4444450736045837	-0.148594081401825	1.202205300331116	0.3649446368217468	0.1066023483872414	1.734278321266174	0.3708855509757996	0.03026309981942177	1.410968422889709	0.1972662955522537	-0.09423057734966278	1.29511022567749	0.2861048877239227	0.03390255197882652	0.06253374367952347	0.6283019185066223	0.1411894559860229	1.085252523422241	0.6793461441993713	0.0208769179880619	0.5646981000900269	0.4587367177009583	0.09529553353786469	0.07575711607933044	0.5527453422546387	-0.06087053567171097	1.156859636306763	0.3956303298473358	0.1262415051460266	0.5301435589790344	0.4034959673881531	0.3139644265174866	1.073710203170776	0.7110056281089783	-0.06988225877285004	1.505216479301453	0.5423856377601624	0.06337032467126846	0.7130283117294312	0.5532546043395996	-0.01219168305397034	0.4385354518890381	0.4800454676151276	0.03440782427787781	0.09585878998041153	0.3730422854423523	-0.1264108568429947	1.350780963897705	0.4591559767723083	0.02229182608425617	1.3528653383255	0.23541259765625	-0.03746427223086357	1.332234978675842	0.1819668561220169	0.2869329154491425	0.7655094861984253	0.2877071797847748	0.3729127049446106	1.144036293029785	0.4789661169052124	0.2944741547107697	1.441471695899963	0.6369110345840454	0.08068125694990158	1.694645524024963	0.5762253403663635	0.4781143963336945	1.294108390808105	0.2917377948760986	0.1997224539518356	1.738629937171936	0.4986491203308105	0.1802256405353546	1.421009063720703	0.1352263540029526	0.3395999670028687	1.343675971031189	0.2198824286460876	0.2939557433128357	0.8141571283340454	0.3760084211826324	0.4399132132530212	1.190829157829285	0.5435073375701904	0.1855333745479584	1.193200469017029	0.1594469547271729	0.1992200165987015	0.7635861039161682	0.3597522974014282	0.440687894821167	1.223280668258667	0.3316303491592407	0.07642778009176254	1.197583556175232	0.2559089660644531	0.3939972221851349	1.099079251289368	0.6707253456115723	0.2696952521800995	1.55724024772644	0.4422397315502167	0.3636693358421326	1.15355372428894	0.3108708262443542	0.2184288948774338	1.055944442749023	0.1683791279792786	0.1378165781497955	0.6831820607185364	0.1986013799905777	0.3879665434360504	1.424370408058167	0.3477781414985657	0.2275549322366714	1.344794631004333	0.224653959274292	0.2413589358329773	1.306124091148376	0.1594308614730835	0.1410464495420456	1.27111542224884	0.4528431296348572	0.2306048274040222	1.356300830841064	0.6977551579475403	
337	0.9333333333333333	0.1102692782878876	1.561863541603088	0.5833452939987183	0.1083929389715195	1.45418381690979	0.4506865739822388	-0.01944117248058319	0.05988531187176704	0.5503091812133789	0.1447297036647797	1.058135628700256	0.591176450252533	0.09182169288396835	1.400236248970032	0.7048980593681335	-0.0008595464169047773	1.70058012008667	0.443882167339325	-0.1473443359136581	1.199955940246582	0.3663230836391449	0.1072074919939041	1.733336448669434	0.3702602386474609	0.03110758401453495	1.407816886901855	0.1968250870704651	-0.09333719313144684	1.292455434799194	0.2868547439575195	0.0340086817741394	0.06250390410423279	0.6283016204833984	0.1426161676645279	1.084665417671204	0.6795790791511536	0.02226245775818825	0.564474880695343	0.4580970108509064	0.09549916535615921	0.07557568699121475	0.5528008341789246	-0.05963083356618881	1.154611349105835	0.3970241546630859	0.1280195862054825	0.529707133769989	0.4034340381622314	0.3154030442237854	1.073699474334717	0.71136474609375	-0.06878183782100677	1.504059553146362	0.542199969291687	0.06482478976249695	0.7125422954559326	0.552797257900238	-0.01113728899508715	0.4384394586086273	0.4793781042098999	0.03468455001711845	0.09567280858755112	0.3730299174785614	-0.1253192722797394	1.348962068557739	0.4597365260124207	0.02308696880936623	1.349905729293823	0.2354679256677628	-0.03662297502160072	1.328947901725769	0.1823743283748627	0.291267991065979	0.759660542011261	0.2896345853805542	0.3744441568851471	1.142362475395203	0.4788770377635956	0.2958385944366455	1.441052675247192	0.6360677480697632	0.08148571103811264	1.693635702133179	0.5757455825805664	0.4797099828720093	1.293804526329041	0.2909466028213501	0.200470507144928	1.737737417221069	0.4978851079940796	0.1806658953428268	1.418108105659485	0.1341100186109543	0.3408479988574982	1.342225193977356	0.218967467546463	0.297457367181778	0.8093141913414001	0.377485990524292	0.4415149092674255	1.190111637115479	0.5434629321098328	0.1878650933504105	1.185677170753479	0.1567035913467407	0.2029973566532135	0.7580048441886902	0.3612677752971649	0.4428130388259888	1.222951769828796	0.3310881555080414	0.07858656346797943	1.190465450286865	0.2527671456336975	0.3956156075000763	1.098891139030457	0.6709800958633423	0.270472913980484	1.556339740753174	0.4413807988166809	0.3656327724456787	1.149176478385925	0.3096631169319153	0.2216986119747162	1.048802495002747	0.1673194169998169	0.1429843157529831	0.6756864786148071	0.2007803916931152	0.3892358839511871	1.423754692077637	0.3470031917095184	0.2283829897642136	1.342635631561279	0.2238650023937225	0.2427781969308853	1.303802251815796	0.1586019396781921	0.1425144672393799	1.270251750946045	0.4524205923080444	0.2320097088813782	1.355836987495422	0.6971610188484192	
338	0.9361111111111111	0.1112273707985878	1.560804724693298	0.58314448595047	0.1093773171305656	1.45311427116394	0.4502586424350739	-0.01933964341878891	0.0599709153175354	0.5503208041191101	0.1464466005563736	1.057188749313354	0.5913046002388	0.09325707703828812	1.399613380432129	0.7044435739517212	-0.000243895803578198	1.699383139610291	0.4434345960617065	-0.1461292505264282	1.197558045387268	0.3678547143936157	0.1077777296304703	1.732383012771606	0.3696813881397247	0.03191159293055534	1.404475569725037	0.1963833421468735	-0.09240095317363739	1.289703369140625	0.28756383061409	0.03411727026104927	0.06248335912823677	0.6282944679260254	0.1442588418722153	1.083995938301086	0.6796315312385559	0.0237934160977602	0.5642508864402771	0.457450807094574	0.09567248076200485	0.07539462298154831	0.5528532266616821	-0.05790579691529274	1.152489185333252	0.3989050388336182	0.1298710107803345	0.5292234420776367	0.4034411013126373	0.3169806599617004	1.073583960533142	0.7117688655853271	-0.06763073801994324	1.502893447875977	0.5419631004333496	0.06635190546512604	0.7120904326438904	0.5524979829788208	-0.01006288267672062	0.4382961392402649	0.4786312282085419	0.03495665267109871	0.0954778790473938	0.3730151355266571	-0.1240016594529152	1.347024321556091	0.4604670405387878	0.02382375858724117	1.346771001815796	0.2353931963443756	-0.03611637279391289	1.325562953948975	0.1826489865779877	0.2955864369869232	0.7537329792976379	0.291488915681839	0.3759923875331879	1.14076042175293	0.4789279997348785	0.297066867351532	1.440562725067139	0.6353169083595276	0.08235260844230652	1.692511081695557	0.5751329064369202	0.4812520742416382	1.293487548828125	0.2901182770729065	0.2012281864881516	1.736791849136353	0.497179239988327	0.1812542080879211	1.415143728256226	0.1329721957445145	0.3421123027801514	1.34066915512085	0.2181322872638702	0.3011420965194702	0.804293692111969	0.3787663578987122	0.4430157244205475	1.189411640167236	0.543490469455719	0.1902584731578827	1.178166627883911	0.1539673209190369	0.2065425962209702	0.7523828744888306	0.3625411987304688	0.4449466466903687	1.222540259361267	0.3305124938488007	0.08052317798137665	1.183228850364685	0.2496421784162521	0.3972332179546356	1.09872829914093	0.6713750958442688	0.2713458836078644	1.555320620536804	0.440462738275528	0.3675623834133148	1.144832968711853	0.3083775341510773	0.2251825034618378	1.041626930236816	0.1661835461854935	0.148203432559967	0.6681666374206543	0.2026776075363159	0.390402615070343	1.423026084899902	0.3463816940784454	0.229229524731636	1.340423464775085	0.2230747193098068	0.2441511005163193	1.301245808601379	0.1580713391304016	0.1440484672784805	1.269625663757324	0.4520769715309143	0.2334370911121368	1.355311989784241	0.696550190448761	
